<svg xmlns="http://www.w3.org/2000/svg" width="560" height="140" viewBox="0 0 560 140" fill="none">
  <defs>
    <linearGradient id="platformGradient" x1="0%" y1="0%" x2="100%" y2="100%">
      <stop offset="0%" stop-color="#0F172A" />
      <stop offset="55%" stop-color="#334155" />
      <stop offset="100%" stop-color="#6D5EFC" />
    </linearGradient>
  </defs>
  <g transform="translate(14 10) scale(0.62)">
  <g transform="translate(0.000000,189.000000) scale(0.100000,-0.100000)" fill="url(#platformGradient)" stroke="none">
    <path d="M759 1713 c-13 -16 -12 -17 4 -4 9 7 17 15 17 17 0 8 -8 3 -21 -13z"/>
    <path d="M1206 1722 c-3 -5 1 -9 9 -9 8 0 12 4 9 9 -3 4 -7 8 -9 8 -2 0 -6 -4 -9 -8z"/>
    <path d="M594 1700 c-62 -25 -86 -129 -43 -184 20 -25 20 -28 5 -45 -10 -11 -37 -22 -62 -26 -86 -12 -157 -114 -138 -198 16 -77 73 -134 145 -147 47 -9 235 12 250 27 19 19 5 46 -26 55 -18 5 -63 4 -112 -3 -93 -12 -111 -9 -159 33 -37 32 -46 76 -20 97 17 14 21 8 30 -41 6 -31 13 -38 48 -53 46 -18 51 -16 68 39 15 47 69 109 111 126 l31 13 -22 17 c-14 11 -21 25 -18 41 3 21 8 24 36 21 31 -3 32 -2 32 37 0 22 5 41 13 44 9 3 9 10 -2 30 -8 15 -12 30 -8 33 3 4 0 19 -9 35 -25 49 -94 72 -150 49z m70 -20 c31 0 59 -23 62 -51 1 -13 3 -25 3 -26 1 -2 0 -5 -1 -6 -2 -2 3 -11 11 -20 11 -14 11 -18 -2 -23 -10 -3 -14 -14 -11 -30 4 -20 0 -24 -20 -24 -14 0 -31 -7 -40 -15 -8 -9 -18 -16 -21 -15 -24 1 -27 -2 -10 -13 22 -13 31 -37 14 -37 -5 0 -7 -5 -4 -10 4 -6 10 -8 14 -6 4 3 8 -1 8 -9 0 -8 -7 -17 -14 -19 -9 -4 -11 -1 -7 7 6 8 3 8 -9 -1 -9 -8 -19 -22 -22 -33 -8 -23 -28 -25 -45 -4 -7 8 -19 15 -28 15 -8 0 -12 -3 -8 -7 4 -5 13 -8 19 -8 15 0 18 -65 4 -82 -5 -7 -6 -13 -1 -13 11 0 -18 -20 -29 -20 -5 0 -5 4 -2 10 3 6 -1 7 -9 4 -18 -7 -37 32 -39 78 -1 16 -5 24 -11 18 -4 -4 -15 -6 -22 -3 -8 3 -14 0 -14 -7 0 -6 -4 -9 -9 -5 -12 7 -24 -30 -23 -70 0 -28 -1 -28 -10 -8 -6 12 -7 34 -3 50 5 15 8 31 7 36 -1 4 6 7 16 7 14 0 15 2 2 10 -12 8 -12 10 5 10 15 0 17 2 6 9 -10 7 -8 12 10 25 18 12 25 13 31 3 5 -8 8 -8 8 -1 0 12 36 27 57 25 6 -1 14 3 18 9 3 5 17 10 30 10 12 0 25 7 29 15 3 8 1 15 -3 15 -5 0 -11 -6 -14 -12 -2 -7 -4 1 -5 17 -2 53 -5 70 -15 77 -15 10 -17 33 -5 76 11 36 12 36 19 12 l7 -25 1 26 c1 30 20 51 39 44 8 -3 24 -5 36 -5z m-242 -488 c-4 -11 -1 -14 11 -9 12 4 14 2 10 -11 -5 -13 -3 -15 7 -5 10 9 18 9 34 -2 24 -16 69 -19 176 -11 l75 6 -69 -20 c-82 -25 -163 -22 -183 6 -10 14 -13 14 -14 3 0 -10 -2 -10 -6 -1 -2 6 -8 10 -13 7 -10 -6 -51 30 -43 39 3 3 1 6 -6 6 -9 0 -9 4 1 14 15 16 29 1 20 -22z"/>
    <path d="M620 1671 c0 -6 4 -13 10 -16 6 -3 7 1 4 9 -7 18 -14 21 -14 7z"/>
    <path d="M581 1594 c0 -11 10 -35 24 -54 29 -39 34 -31 6 8 -10 15 -21 36 -24 47 -5 20 -5 20 -6 -1z"/>
    <path d="M517 1399 c4 -13 8 -18 11 -10 2 7 -1 18 -6 23 -8 8 -9 4 -5 -13z"/>
    <path d="M1290 1703 c-33 -12 -60 -47 -60 -78 0 -17 -5 -36 -12 -43 -8 -8 -8 -15 2 -27 7 -9 13 -32 12 -52 -1 -34 -1 -35 29 -29 25 5 31 2 40 -21 5 -14 8 -27 7 -28 -2 -1 -14 -8 -27 -15 l-25 -13 35 -17 c61 -32 119 -107 119 -154 0 -19 37 -21 74 -5 18 9 28 23 34 53 10 51 36 56 40 8 3 -24 -4 -40 -25 -62 -39 -42 -81 -51 -170 -39 -82 11 -128 6 -137 -17 -17 -43 34 -58 196 -59 92 0 98 1 135 31 74 59 94 151 50 229 -24 44 -91 85 -139 85 -16 0 -33 8 -42 22 -14 20 -14 24 0 39 45 50 35 146 -19 179 -30 19 -85 25 -117 13z m86 -29 c-3 -8 -2 -13 2 -10 4 2 16 -2 27 -10 14 -11 19 -27 20 -66 0 -32 -5 -53 -12 -55 -7 -3 -13 -11 -13 -19 0 -7 -11 -21 -25 -30 -21 -14 -30 -15 -48 -5 -13 7 -32 14 -42 15 -11 2 -19 9 -17 15 1 6 -3 11 -10 11 -6 0 -8 3 -5 6 3 4 2 15 -4 26 -8 15 -5 29 10 59 24 45 28 68 6 29 -8 -14 -14 -20 -14 -15 -1 31 47 63 98 64 26 1 32 -2 27 -15z m16 -206 c-16 -16 -15 -29 2 -22 8 3 24 0 36 -6 17 -9 21 -19 18 -41 -4 -23 -2 -26 9 -18 7 7 13 20 13 31 0 15 3 18 13 11 6 -6 20 -9 30 -8 10 2 25 -7 33 -21 9 -13 21 -21 27 -17 5 3 7 1 4 -4 -4 -6 -1 -16 7 -22 20 -17 28 -58 16 -81 -8 -14 -8 -20 0 -20 16 0 -18 -62 -49 -87 -17 -14 -34 -20 -51 -17 -18 4 -21 3 -12 -4 32 -22 -81 -25 -205 -6 -32 5 -47 21 -20 21 6 0 23 3 36 7 17 6 21 5 16 -3 -5 -8 1 -10 21 -5 19 5 25 4 20 -5 -5 -8 0 -9 16 -3 13 4 39 7 58 6 19 -1 48 5 64 13 15 8 25 10 22 4 -9 -14 4 -14 24 -1 11 7 11 10 2 10 -10 0 -10 3 0 14 7 8 16 12 19 10 14 -8 27 23 26 61 -1 28 -7 44 -21 55 -34 24 -43 20 -71 -35 -26 -49 -43 -60 -62 -41 -4 4 -8 11 -8 14 -3 35 -81 133 -100 126 -10 -4 -12 1 -8 15 3 11 17 25 32 30 26 10 26 10 1 8 -18 -1 -25 3 -27 18 -1 11 0 15 3 9 5 -13 54 -6 54 7 0 5 5 9 12 9 9 0 9 -3 0 -12z"/>
    <path d="M1392 1580 c-7 -12 -16 -19 -21 -16 -4 3 -6 -5 -5 -17 1 -12 3 -26 3 -32 1 -5 5 -4 10 4 5 8 7 21 3 29 -3 10 -1 13 6 8 7 -4 15 -1 18 8 10 26 0 37 -14 16z"/>
    <path d="M1420 1348 c-12 -8 -12 -9 2 -5 9 3 19 1 22 -6 3 -9 5 -9 5 0 1 18 -13 23 -29 11z"/>
    <path d="M724 1364 c-49 -18 -97 -65 -119 -118 l-16 -39 40 7 c30 4 50 17 75 44 l34 37 92 1 c72 1 95 5 110 19 31 28 24 42 -24 54 -60 15 -142 13 -192 -5z m166 -15 c0 -14 -36 -28 -58 -22 -33 8 -87 -5 -112 -27 -15 -13 -31 -18 -44 -14 -14 3 -17 2 -8 -4 18 -13 4 -42 -22 -42 -20 1 -20 1 4 16 14 8 17 13 7 10 -17 -5 -17 -4 -1 23 18 30 69 54 122 56 17 1 35 5 38 8 9 9 74 5 74 -4z m37 -15 c-3 -3 -12 -4 -19 -1 -8 3 -5 6 6 6 11 1 17 -2 13 -5z"/>
    <path d="M1031 1354 c-31 -17 -66 -46 -83 -71 -53 -73 -47 -167 10 -149 14 5 21 19 25 47 10 76 75 121 173 121 71 -1 113 -18 134 -56 7 -14 19 -26 25 -26 7 0 27 -3 44 -6 l32 -7 -16 39 c-36 87 -96 124 -209 131 -75 5 -85 3 -135 -23z m61 -8 c6 4 31 9 56 11 44 3 72 -9 72 -30 0 -6 -6 -3 -13 7 -12 16 -15 17 -20 4 -4 -11 -17 -15 -46 -13 -23 1 -44 -2 -47 -7 -9 -15 -33 12 -27 30 4 10 8 12 11 4 2 -7 8 -9 14 -6z m192 -22 c3 -8 10 -12 16 -9 5 3 10 -1 10 -10 0 -9 5 -13 10 -10 6 3 11 1 11 -4 3 -20 4 -26 12 -38 12 -19 -16 -9 -45 16 -15 13 -24 29 -21 35 3 6 3 8 -2 4 -11 -10 -47 11 -40 23 10 15 42 11 49 -7z m-236 -9 c-2 -5 -6 -9 -10 -7 -5 1 -7 -3 -5 -9 1 -6 -4 -14 -12 -17 -9 -3 -11 0 -6 8 5 9 4 11 -4 6 -6 -4 -9 -11 -6 -15 7 -12 -32 -44 -44 -36 -16 9 -13 25 4 25 8 0 15 5 15 11 0 15 42 49 58 46 7 -1 12 -6 10 -12z m-82 -120 c-3 -9 -10 -13 -16 -10 -5 3 -10 1 -10 -6 0 -7 -2 -10 -5 -7 -3 3 0 17 6 32 13 29 37 20 25 -9z"/>
    <path d="M1027 1222 c-9 -10 -17 -32 -17 -49 0 -40 -37 -94 -80 -116 -49 -25 -178 -21 -210 8 -14 13 -32 19 -53 16 -46 -4 -51 -14 -23 -48 42 -50 82 -63 188 -63 118 0 166 21 216 95 30 44 33 55 30 109 -3 67 -20 82 -51 48z m14 -125 c-12 -23 -39 -55 -61 -70 -37 -26 -49 -29 -128 -29 -103 -1 -140 6 -167 32 -19 19 -19 20 5 15 12 -2 40 -13 62 -24 21 -10 40 -15 43 -11 3 4 19 5 37 1 18 -4 47 -2 64 4 46 15 115 66 107 78 -3 6 -1 7 5 3 7 -4 12 -1 13 6 1 7 2 28 4 46 1 17 9 40 16 49 24 29 24 -51 0 -100z"/>
    <path d="M1250 1063 c-29 -20 -44 -24 -90 -21 -30 2 -62 7 -70 11 -11 5 -21 -2 -33 -22 -9 -16 -17 -31 -17 -34 0 -13 69 -27 129 -27 77 0 142 27 175 72 23 32 22 34 -24 40 -26 4 -44 -1 -70 -19z m51 -27 c-25 -27 -101 -52 -111 -36 -5 7 -11 6 -20 -5 -13 -16 -35 -21 -25 -5 3 5 -5 9 -17 8 -46 -2 -57 2 -52 17 4 8 10 12 16 9 5 -3 33 -7 61 -9 51 -2 127 24 127 44 0 5 9 7 21 4 20 -6 20 -6 0 -27z"/>
    <path d="M1274 1034 c-18 -14 -18 -15 4 -4 12 6 22 13 22 15 0 8 -5 6 -26 -11z"/>
    <path d="M517 1035 c20 -109 99 -199 199 -228 44 -12 175 -29 174 -23 0 1 -11 35 -24 76 l-24 75 -60 6 c-72 7 -141 44 -171 93 -18 29 -26 33 -60 32 -38 -1 -39 -2 -34 -31z m60 -17 c-4 -15 -3 -17 8 -8 10 8 16 4 26 -20 8 -18 19 -28 27 -25 8 3 10 0 6 -7 -5 -8 -2 -9 10 -5 11 5 15 3 10 -5 -5 -8 -2 -9 9 -5 10 3 17 2 17 -3 0 -5 27 -15 60 -22 53 -11 59 -14 55 -33 -5 -16 -3 -15 9 5 l15 25 2 -25 c1 -14 2 -31 2 -37 -1 -7 4 -13 9 -13 17 0 2 -23 -17 -26 -27 -4 -115 18 -115 28 0 5 -4 7 -9 4 -14 -9 -72 27 -66 41 2 7 -1 12 -8 10 -7 -1 -11 4 -9 12 3 12 1 12 -14 0 -10 -8 -15 -9 -11 -2 4 6 1 17 -6 25 -8 7 -12 19 -9 27 2 7 -2 17 -9 22 -18 11 -20 56 -2 56 9 0 13 -7 10 -19z"/>
    <path d="M815 859 c-4 -6 -5 -12 -2 -15 2 -3 7 2 10 11 7 17 1 20 -8 4z"/>
    <path d="M1367 1031 c-34 -52 -113 -91 -182 -91 l-52 0 -18 -62 c-9 -35 -19 -70 -22 -78 -4 -14 6 -15 75 -9 92 8 177 44 218 92 28 33 66 111 78 160 6 26 5 27 -32 27 -35 0 -43 -5 -65 -39z m66 -3 c-4 -7 -9 -22 -10 -32 -5 -29 -9 -29 -28 0 -9 15 -12 23 -6 20 6 -4 11 -2 11 4 0 6 4 9 9 5 5 -3 12 -1 16 5 3 5 8 10 11 10 3 0 2 -6 -3 -12z m-33 -75 c0 -13 -4 -23 -10 -23 -5 0 -10 -6 -10 -14 0 -7 -17 -26 -37 -42 -20 -15 -33 -22 -29 -16 4 7 2 12 -3 12 -6 0 -11 -7 -11 -16 0 -8 -5 -12 -11 -8 -6 3 -14 2 -18 -5 -6 -10 -93 -31 -127 -31 -16 0 -15 36 3 77 9 22 18 30 29 26 18 -6 134 28 134 39 0 5 4 8 10 8 5 0 7 -8 4 -17 -4 -10 3 -4 14 13 33 51 61 49 62 -3z"/>
    <path d="M1185 850 c-3 -5 -1 -10 4 -10 6 0 11 5 11 10 0 6 -2 10 -4 10 -3 0 -8 -4 -11 -10z"/>
    <path d="M240 585 c0 -69 3 -85 15 -85 12 0 15 13 16 58 l0 57 22 -42 c11 -24 26 -43 33 -43 6 0 21 19 32 43 l21 42 1 -57 c0 -45 3 -58 15 -58 12 0 15 16 15 85 0 103 -16 112 -56 33 l-26 -51 -30 51 c-44 78 -58 70 -58 -33z"/>
    <path d="M720 586 c0 -70 3 -86 15 -86 10 0 15 10 15 30 0 27 3 30 29 30 35 0 61 23 61 54 0 32 -22 48 -75 54 l-45 5 0 -87z m80 39 c16 -19 -3 -45 -31 -45 -14 0 -19 7 -19 30 0 23 5 30 19 30 10 0 24 -7 31 -15z"/>
    <path d="M1502 653 c2 -10 10 -18 18 -18 22 0 18 29 -3 33 -14 3 -18 -1 -15 -15z"/>
    <path d="M1061 632 c-8 -15 -20 -18 -56 -16 l-46 3 3 -57 c2 -43 7 -57 18 -57 10 0 16 13 18 43 2 27 8 42 17 42 7 0 20 3 29 6 12 5 15 -4 18 -43 3 -43 5 -48 27 -48 13 0 26 6 29 13 2 6 -3 12 -12 12 -12 0 -16 10 -16 35 0 26 3 33 15 29 10 -4 15 0 15 11 0 11 -5 15 -15 11 -10 -4 -15 1 -15 14 0 25 -16 26 -29 2z"/>
    <path d="M448 609 c-27 -15 -24 -74 4 -93 46 -32 88 -9 88 49 0 48 -47 71 -92 44z m60 -48 c3 -29 1 -32 -20 -29 -26 3 -38 45 -16 59 21 14 33 5 36 -30z"/>
    <path d="M560 558 c0 -51 2 -59 17 -56 14 3 17 12 14 46 -2 41 -1 43 21 40 19 -2 23 -10 26 -45 2 -29 8 -43 18 -43 18 0 20 93 2 108 -7 5 -32 10 -55 9 l-43 0 0 -59z"/>
    <path d="M863 613 c-24 -9 -13 -23 17 -23 39 0 39 -16 0 -24 -63 -12 -46 -66 21 -63 l39 1 0 46 c0 25 -5 51 -12 58 -12 12 -43 15 -65 5z m45 -75 c-3 -7 -11 -13 -18 -13 -7 0 -15 6 -17 13 -3 7 4 12 17 12 13 0 20 -5 18 -12z"/>
    <path d="M1147 602 c-40 -44 0 -112 58 -98 35 9 31 24 -7 28 -44 4 -47 25 -3 25 45 0 51 7 31 38 -20 30 -56 33 -79 7z m61 -19 c2 -8 -6 -13 -22 -13 -25 0 -33 10 -19 24 10 10 36 3 41 -11z"/>
    <path d="M1252 561 c2 -44 7 -57 21 -59 14 -3 17 4 17 42 0 39 3 46 20 46 17 0 20 -7 20 -45 0 -33 4 -45 15 -45 19 0 21 93 3 108 -7 5 -32 10 -56 9 l-43 0 3 -56z"/>
    <path d="M1393 613 c-25 -10 -12 -23 22 -23 44 0 45 -13 3 -25 -22 -7 -34 -17 -36 -32 -4 -26 31 -41 53 -23 11 9 15 9 15 1 0 -6 7 -11 15 -11 21 0 21 83 -1 104 -15 16 -46 20 -71 9z m57 -72 c0 -5 -7 -12 -16 -15 -22 -9 -24 -8 -24 9 0 8 9 15 20 15 11 0 20 -4 20 -9z"/>
    <path d="M1500 560 c0 -47 3 -60 15 -60 12 0 15 13 15 60 0 47 -3 60 -15 60 -12 0 -15 -13 -15 -60z"/>
    <path d="M1556 561 c0 -44 4 -57 17 -59 14 -3 17 5 17 38 0 33 4 43 20 47 35 9 23 30 -17 30 l-38 0 1 -56z"/>
    <path d="M1646 598 c-37 -52 1 -107 64 -93 40 9 33 29 -10 29 -18 1 -35 7 -37 14 -4 9 7 11 36 9 34 -3 41 0 41 14 0 46 -67 66 -94 27z m62 -15 c2 -8 -6 -13 -22 -13 -25 0 -33 10 -19 24 10 10 36 3 41 -11z"/>
    <path d="M526 472 c-2 -4 4 -8 14 -8 10 0 16 4 14 8 -3 4 -9 8 -14 8 -5 0 -11 -4 -14 -8z"/>
  </g>
  </g>
  <text x="170" y="84" font-family="Inter, Segoe UI, Arial, sans-serif" font-size="52" font-weight="800" letter-spacing="-0.01em">
    <tspan fill="#0F172A">Mon</tspan>
    <tspan fill="#6D5EFC">Partenaire</tspan>
  </text>
</svg>
